<?xml version="1.0" encoding="UTF-8"?>
<svg id="Capa_2" data-name="Capa 2" xmlns="http://www.w3.org/2000/svg" viewBox="0 0 64 64">
  <defs>
    <style>
      .cls-1 {
        fill: #fff;
      }

      .cls-2 {
        fill: #e50d2e;
        fill-rule: evenodd;
      }
    </style>
  </defs>
  <g id="Capa_1-2" data-name="Capa 1">
    <rect class="cls-1" x="0" y="0" width="64" height="64" rx="32" ry="32"/>
    <g>
      <path class="cls-2" d="M8.95,33.78C14.95,20.1,30.97,8.19,44.65,7.14c5.08-.39,6.05.84,2.03,1.15-5.86.45-8.43,2.45-3.86,2.1,11.89-.92,17.27,7.96,12.01,19.84-6.04,13.66-22.02,25.58-35.69,26.64-5.08.39-6.05-.84-2.03-1.15,5.86-.45,8.42-2.57,3.86-2.1-11.54,1.2-16.89-8.73-12.02-19.83ZM50.33,30.96c4.75-10.64-.11-18.6-10.87-17.78-10.76.82-22.93,10.16-27.69,20.8-4.75,10.64-.3,18.34,10.46,17.52,10.76-.82,23.34-9.9,28.09-20.54Z"/>
      <path class="cls-2" d="M32.8,30.28c-.25-.25-.52-.45-.66-.57,0,0-.09.43-.2.76-.31.9-.32,1.23-.21,1.7.49,2.07.64,3.52.46,5.06-.05.38-.05.41-.02.55.05.24.04.59.02.77-.04.49.11,2.87.26,3.6s.29.96.86,1.28c.66.37,1.7.35,1.7.35.14.63-.72.74-2.11.74-.95,0-1.36.2-1.43-.22-.05-.34.09-.65.04-1.09-.03-.3-.1-1.5-.61-2.97-.4-1.17-.04-1.49-.64-2.89-.56-1.29-.92-2.78-.92-2.78,0,0,.02.51.29,1.38-.11.34-.32.97-.72,1.56-.88,1.27-1.02.68-1.58,1.19-.71.63-1.38.76-2.17,1.17-.8.41-1.26.82-1.48,1.2-.29.5-.3.51-.28,1.06,0,.24,0,.62.02.96.01.25.13.42.13.42.02.11-.35,0-.62-.2-.3-.21-.41-.33-.42-.42-.05-.31-.05-.52-.09-.85-.06-.61-.29-.96-.53-1.34-.26-.4.1-.71.5-.66.52.06.85,0,1.75-1.06,1.02-1.18,2.1-1.93,2.82-1.93.39,0,.39-.99.8-2.55.33-1.27.79-1.7.63-2.15-.47-1.31.52-2.62,1.11-3.39.23-.31.32-1.28.34-1.69.65-.85.57-.95.57-.95,0,0-.22.31-.45.63-.28.39-.6.82-.78,1.19-.62,1.33-1.38,2.06-1.61,2.53-.33.69.03.55.03,1.05s-.25,1.07-.28.81c-.04-.36-.03-.57-.19-.58-.49-.05-.31,1.26-.31,1.26-.43-.1-.58-.69-.58-.69-.4-.53.05-1.29.39-1.72.43-.55.38-.51,1.17-2.86.47-1.37.47-.82,1.24-2.87.88-2.34,1.51-1.67,1.71-2.16.4-.94-.14-.91-.11-2.09.01-.51.34-1.51,1.73-1.43,1.08.06,1.3,1.06,1.22,1.48-.02.09-.07.11-.07.18,0,.23.21.44.25.57.03.07-.01.12-.2.11-.07,0-.03.32-.1.51-.1.25-.02.42-.11.58-.05.08-.22.13-.39.1-.21-.04-.4-.09-1.16-.52-.04-.02-.07-.17-.12-.19-.02,0,.02.19.12.26.08.06.39.21.6.35-.45.66-.31.79.03,1.27,1.16,1.64.61,2.51.61,2.51-.14.13-.35,1.01-.35,1.01-.03.1-.17.46-.28.78-.45,1.33.15-.23.18-.13.02.06.05.11.08.22.08.3.11.36.43.81.45.65.7.93.75.95.1.04.52.17.81.34.32.19.69.5.79.89.02.07,0,.25-.05.18-.15-.27-.2-.32-.08.03,0,.03-.06.09-.08.11-.09.07-.08.05-.15.12-.18.17-.34.08-.34.08,0,0,.14-.39-.58-.58-.56-.15-.73-.6-.73-.6,0,0-.18-.04-.65-.51Z"/>
    </g>
  </g>
</svg>