<?xml version="1.0" encoding="UTF-8"?>
<svg id="Capa_2" data-name="Capa 2" xmlns="http://www.w3.org/2000/svg" viewBox="0 0 64 64">
  <defs>
    <style>
      .cls-1 {
        fill: #fff;
      }

      .cls-2 {
        fill: #e50d2e;
        fill-rule: evenodd;
      }
    </style>
  </defs>
  <g id="Riverline">
    <rect class="cls-1" x="0" y="0" width="64" height="64" rx="32" ry="32"/>
    <g>
      <path class="cls-2" d="M11.57,33.58c5.32-12.12,19.52-22.68,31.64-23.62,4.5-.35,5.36.75,1.8,1.02-5.2.4-7.47,2.17-3.42,1.86,10.54-.82,15.31,7.06,10.65,17.59-5.36,12.11-19.52,22.68-31.64,23.61-4.5.35-5.36-.75-1.8-1.02,5.2-.4,7.46-2.28,3.42-1.86-10.23,1.06-14.98-7.74-10.65-17.58ZM48.25,31.08c4.22-9.43-.1-16.49-9.64-15.76-9.54.73-20.33,9-24.54,18.44-4.21,9.43-.26,16.26,9.28,15.53,9.54-.73,20.69-8.77,24.91-18.21Z"/>
      <path class="cls-2" d="M32.71,30.48c-.22-.22-.46-.4-.59-.5,0,0-.08.38-.18.67-.28.8-.28,1.09-.18,1.51.43,1.83.57,3.12.4,4.48-.04.33-.04.37-.02.48.05.21.03.53.02.68-.04.44.09,2.54.23,3.19s.26.85.77,1.13c.58.33,1.51.31,1.51.31.13.56-.63.65-1.87.65-.84,0-1.21.18-1.27-.19-.05-.3.08-.58.04-.97-.03-.26-.09-1.33-.54-2.63-.36-1.04-.03-1.32-.57-2.57-.49-1.14-.82-2.47-.82-2.47,0,0,.01.45.26,1.22-.09.31-.28.86-.64,1.38-.78,1.13-.9.61-1.4,1.05-.63.56-1.22.68-1.93,1.04-.71.36-1.12.73-1.32,1.06-.26.44-.26.45-.25.94,0,.21,0,.55.02.85.01.22.12.37.12.37.02.1-.31,0-.55-.18-.27-.18-.36-.3-.38-.37-.05-.27-.05-.46-.08-.76-.05-.54-.26-.85-.47-1.19-.23-.36.09-.63.44-.59.46.06.75,0,1.55-.94.9-1.04,1.86-1.71,2.5-1.71.35,0,.34-.88.71-2.26.29-1.13.7-1.51.55-1.91-.42-1.16.46-2.32.98-3,.21-.27.28-1.13.3-1.5.58-.76.5-.84.5-.84,0,0-.19.28-.4.56-.25.34-.54.73-.69,1.06-.55,1.17-1.23,1.83-1.43,2.25-.29.61.02.49.03.93s-.22.94-.25.72c-.04-.32-.02-.5-.16-.52-.44-.04-.27,1.12-.27,1.12-.38-.09-.51-.61-.51-.61-.36-.47.05-1.14.35-1.53.39-.49.33-.45,1.04-2.53.41-1.22.42-.73,1.1-2.54.78-2.07,1.33-1.48,1.52-1.91.35-.83-.12-.81-.09-1.85.01-.45.3-1.34,1.53-1.27.96.06,1.15.94,1.08,1.31-.02.08-.06.1-.06.16,0,.2.19.39.22.5.02.07-.01.1-.18.1-.07,0-.03.28-.09.45-.09.23-.02.37-.1.51-.04.07-.2.12-.35.09-.19-.03-.35-.08-1.03-.46-.04-.02-.06-.15-.1-.17-.01,0,.02.17.1.23.07.06.34.19.54.31-.4.59-.28.7.02,1.13,1.03,1.45.54,2.22.54,2.22-.12.12-.31.89-.31.89-.02.09-.15.4-.25.69-.4,1.17.13-.2.16-.12.02.05.04.1.07.2.07.27.09.32.38.72.4.57.62.82.67.84.08.04.46.15.71.3.29.17.61.44.7.79.02.07,0,.22-.04.16-.13-.24-.17-.29-.07.03,0,.03-.05.08-.07.09-.08.06-.07.04-.13.1-.16.15-.3.07-.3.07,0,0,.12-.35-.51-.52-.49-.13-.65-.53-.65-.53,0,0-.16-.04-.58-.45Z"/>
    </g>
  </g>
</svg>