<?xml version="1.0" encoding="UTF-8"?>
<svg id="Capa_2" data-name="Capa 2" xmlns="http://www.w3.org/2000/svg" viewBox="0 0 64 64">
  <defs>
    <style>
      .cls-1 {
        fill: #fff;
      }

      .cls-2 {
        fill: #e50d2e;
        fill-rule: evenodd;
      }
    </style>
  </defs>
  <g id="Riverline">
    <rect class="cls-1" x="0" y="0" width="64" height="64" rx="32" ry="32"/>
    <g>
      <path class="cls-2" d="M12.83,33.48c4.99-11.37,18.31-21.28,29.68-22.16,4.23-.33,5.03.7,1.69.96-4.87.38-7.01,2.04-3.21,1.75,9.89-.77,14.36,6.62,9.99,16.5-5.02,11.36-18.31,21.27-29.68,22.15-4.23.33-5.03-.7-1.69-.96,4.87-.38,7-2.14,3.21-1.74-9.59,1-14.05-7.26-9.99-16.49ZM47.24,31.14c3.95-8.85-.09-15.47-9.04-14.78-8.95.68-19.07,8.45-23.02,17.3-3.95,8.85-.25,15.25,8.7,14.57,8.95-.69,19.41-8.23,23.36-17.08Z"/>
      <path class="cls-2" d="M32.67,30.57c-.21-.2-.43-.37-.55-.47,0,0-.07.36-.17.63-.26.75-.26,1.02-.17,1.41.4,1.72.54,2.93.38,4.21-.04.31-.04.34-.01.45.04.2.03.49.02.64-.04.41.09,2.38.22,2.99s.24.79.72,1.06c.55.31,1.42.29,1.42.29.12.52-.6.61-1.76.61-.79,0-1.13.17-1.19-.18-.05-.29.07-.54.04-.91-.03-.25-.08-1.25-.5-2.47-.34-.97-.03-1.24-.53-2.41-.46-1.07-.77-2.31-.77-2.31,0,0,.01.43.24,1.15-.09.29-.27.81-.6,1.29-.73,1.06-.84.57-1.31.99-.59.52-1.15.64-1.81.97-.66.34-1.05.68-1.23,1-.24.42-.25.42-.23.88,0,.2,0,.52.02.8.01.21.11.35.11.35.02.09-.29,0-.52-.17-.25-.17-.34-.28-.35-.35-.04-.26-.04-.43-.07-.71-.05-.5-.24-.8-.44-1.11-.21-.33.09-.59.41-.55.43.05.7,0,1.46-.88.85-.98,1.75-1.61,2.35-1.61.33,0,.32-.83.66-2.12.28-1.06.65-1.42.52-1.79-.39-1.09.43-2.18.92-2.82.2-.26.26-1.06.28-1.4.54-.71.47-.79.47-.79,0,0-.18.26-.37.52-.24.32-.5.68-.65.99-.52,1.1-1.15,1.71-1.34,2.11-.28.57.02.46.03.87s-.21.89-.23.68c-.04-.3-.02-.47-.15-.48-.41-.04-.25,1.05-.25,1.05-.36-.08-.48-.57-.48-.57-.34-.44.04-1.07.33-1.43.36-.46.31-.43.98-2.37.39-1.14.39-.68,1.03-2.38.73-1.94,1.25-1.39,1.42-1.8.33-.78-.11-.76-.09-1.74.01-.42.28-1.26,1.44-1.19.9.05,1.08.89,1.01,1.23-.02.08-.06.09-.06.15,0,.19.18.37.21.47.02.06-.01.1-.17.09-.06,0-.03.27-.09.42-.08.21-.02.35-.09.48-.04.07-.18.11-.33.08-.18-.03-.33-.08-.96-.43-.04-.02-.06-.14-.1-.16-.01,0,.02.15.1.22.07.05.32.18.5.29-.37.55-.26.66.02,1.06.96,1.36.51,2.09.51,2.09-.11.11-.29.84-.29.84-.02.08-.14.38-.23.65-.37,1.1.12-.19.15-.11.02.05.04.1.06.19.07.25.09.3.35.68.38.54.58.77.63.79.08.04.43.14.67.29.27.16.57.42.65.74.02.06,0,.21-.04.15-.12-.23-.16-.27-.07.02,0,.02-.05.07-.07.09-.08.06-.07.04-.13.1-.15.14-.28.06-.28.06,0,0,.11-.33-.48-.48-.46-.12-.61-.5-.61-.5,0,0-.15-.03-.54-.42Z"/>
    </g>
  </g>
</svg>