<?xml version="1.0" encoding="UTF-8"?>
<svg id="Capa_2" data-name="Capa 2" xmlns="http://www.w3.org/2000/svg" viewBox="0 0 64 64">
  <defs>
    <style>
      .cls-1 {
        fill: #fff;
      }

      .cls-2 {
        fill: #e50d2e;
        fill-rule: evenodd;
      }
    </style>
  </defs>
  <g id="Capa_1-2" data-name="Capa 1">
    <rect class="cls-1" width="64" height="64"/>
    <g>
      <path class="cls-2" d="M7.85,33.86C14.14,19.54,30.92,7.06,45.25,5.95c5.32-.41,6.34.89,2.13,1.21-6.14.48-8.83,2.57-4.04,2.2,12.46-.96,18.09,8.34,12.59,20.79-6.33,14.31-23.07,26.8-37.39,27.91-5.32.41-6.34-.88-2.13-1.21,6.14-.48,8.82-2.69,4.04-2.2-12.09,1.25-17.7-9.14-12.59-20.78ZM51.2,30.91c4.98-11.15-.12-19.49-11.39-18.62-11.27.86-24.02,10.64-29.01,21.79-4.98,11.15-.31,19.22,10.96,18.35,11.27-.86,24.45-10.37,29.43-21.52Z"/>
      <path class="cls-2" d="M32.84,30.2c-.26-.26-.55-.47-.69-.59,0,0-.09.45-.21.79-.33.95-.33,1.29-.22,1.78.51,2.17.67,3.69.48,5.3-.05.39-.05.43-.02.57.06.25.04.62.02.8-.05.52.11,3,.28,3.77s.3,1,.91,1.34c.69.39,1.78.37,1.78.37.15.66-.75.77-2.21.77-.99,0-1.43.21-1.5-.23-.06-.36.09-.68.05-1.14-.03-.31-.11-1.58-.63-3.11-.42-1.23-.04-1.56-.67-3.03-.58-1.35-.97-2.91-.97-2.91,0,0,.02.54.3,1.45-.11.36-.34,1.02-.76,1.63-.92,1.33-1.06.72-1.65,1.24-.74.66-1.44.8-2.28,1.23-.83.43-1.32.86-1.55,1.26-.31.52-.31.53-.3,1.11,0,.25,0,.65.02,1.01.01.26.14.44.14.44.03.11-.36,0-.65-.21-.32-.22-.43-.35-.44-.44-.05-.32-.06-.54-.09-.89-.06-.64-.3-1.01-.56-1.4-.27-.42.11-.74.52-.69.54.07.89,0,1.84-1.11,1.07-1.23,2.2-2.03,2.96-2.02.41,0,.41-1.04.83-2.68.35-1.33.82-1.78.66-2.25-.49-1.37.55-2.74,1.16-3.55.25-.32.33-1.34.36-1.77.68-.89.59-1,.59-1,0,0-.23.33-.47.66-.3.41-.63.86-.81,1.25-.65,1.39-1.45,2.16-1.69,2.65-.35.72.03.58.04,1.1s-.26,1.12-.29.85c-.05-.37-.03-.59-.19-.61-.52-.05-.32,1.32-.32,1.32-.45-.1-.61-.72-.61-.72-.42-.56.06-1.35.41-1.8.46-.58.39-.54,1.23-2.99.49-1.44.5-.86,1.3-3,.92-2.45,1.58-1.75,1.79-2.26.42-.99-.14-.96-.11-2.19.01-.53.36-1.58,1.81-1.5,1.14.07,1.36,1.12,1.28,1.55-.02.1-.07.12-.07.19,0,.24.22.46.27.59.03.08-.01.12-.21.12-.08,0-.03.34-.11.53-.1.27-.03.44-.12.6-.05.08-.23.14-.41.11-.22-.04-.41-.1-1.21-.54-.05-.03-.07-.17-.12-.2-.02,0,.02.2.12.28.08.07.41.22.63.37-.47.69-.33.83.03,1.33,1.21,1.72.64,2.63.64,2.63-.14.14-.36,1.05-.36,1.05-.03.1-.18.48-.3.82-.47,1.39.16-.24.19-.14.02.06.05.12.08.23.09.31.11.38.45.85.48.68.73.97.79,1,.1.04.54.18.84.36.34.2.72.53.83.94.02.08,0,.26-.05.19-.16-.29-.21-.34-.08.03,0,.03-.06.09-.09.11-.1.07-.08.05-.16.12-.19.18-.36.08-.36.08,0,0,.14-.41-.6-.61-.58-.15-.77-.63-.77-.63,0,0-.19-.04-.68-.53Z"/>
    </g>
  </g>
</svg>